# xmcd CD database file
#
# Track frame offsets:
#	150
#	13459
#	23917
#	35225
#	49355
#	61842
#	73625
#	84967
#	96815
#	107525
#	118970
#	129747
#	142687
#	152232
#	163992
#
# Disc length: 2368 seconds
#
# Revision: 2
# Processed by: cddbd v1.4PL0 Copyright (c) Steve Scherf et al.
# Submitted via: CDex 1.50beta9
#
DISCID=d4093e0f
DTITLE=Various Artist - WESTERN LOVE SONGS 1
DYEAR=2002
DGENRE=Country
TTITLE0=TELL LAURA I LOVE HER
TTITLE1=OH CAROL
TTITLE2=I WILL FOLLOW HIM
TTITLE3=ARE YOU LONESOME TONGIHT
TTITLE4=LOVE ME TENDER
TTITLE5=LET IT BE ME
TTITLE6=DREAM LOVER
TTITLE7=THE GREAT PRETENDER
TTITLE8=ITSY BITSY TEENIE WEENIE YELLOW POLKADOT BIKINI
TTITLE9=HEY PAULA
TTITLE10=MOONLIGHT SWIM
TTITLE11=I REALLY DON'T WANT TO KNOW
TTITLE12=WHATEVER WILL BE, WILL BE
TTITLE13=ONLY YOU
TTITLE14=THE TENNESSE WALTZ
EXTD=YEAR: 2002
EXTT0=
EXTT1=
EXTT2=
EXTT3=
EXTT4=
EXTT5=
EXTT6=
EXTT7=
EXTT8=
EXTT9=
EXTT10=
EXTT11=
EXTT12=
EXTT13=
EXTT14=
PLAYORDER=
